/* XPM */
static char *wine_small[] = {
/* columns rows colors chars-per-pixel */
"16 16 108 2",
"   c #0D549F",
".  c #11579D",
"X  c #13599B",
"o  c #13599C",
"O  c #145A9A",
"+  c #034BA5",
"@  c #024AA6",
"#  c #074EA3",
"$  c #074FA3",
"%  c #044CA5",
"&  c #094EA0",
"*  c #094FA0",
"=  c #084FA2",
"-  c #084FA3",
";  c #0950A0",
":  c #0A50A1",
">  c #0A51A1",
",  c #0C56A3",
"<  c #0E56A1",
"1  c #0D57A4",
"2  c #0E5AA6",
"3  c #0F5DA7",
"4  c #0F5EA8",
"5  c #0F64AE",
"6  c #1369AD",
"7  c #146BAE",
"8  c #156DAF",
"9  c #1B72A9",
"0  c #1670B0",
"q  c #1773B1",
"w  c #177DBB",
"e  c #1874B2",
"r  c #1A7BB6",
"t  c #197CB7",
"y  c #197DB6",
"u  c #1C7FB7",
"i  c #1A7EB8",
"p  c #1B7EB8",
"a  c #197FBD",
"s  c #296D8C",
"d  c #347785",
"f  c #4B8D74",
"g  c #77B557",
"h  c #79B756",
"j  c #60A96D",
"k  c #78BD74",
"l  c #1A82BA",
"z  c #1C82B9",
"x  c #1C83B9",
"c  c #1D82B9",
"v  c #1F85BB",
"b  c #2A8BBE",
"n  c #2C8CBF",
"m  c #2C8DBE",
"M  c #2E8EBF",
"N  c #2E8FC0",
"B  c #2F90C0",
"V  c #3291C1",
"C  c #3392C1",
"Z  c #3F98C4",
"A  c #469BC6",
"S  c #509FC9",
"D  c #52A1C9",
"F  c #58A4CE",
"G  c #5DA7C8",
"H  c #5CA6CC",
"J  c #7BB5D4",
"K  c #81BF50",
"L  c #9ED93C",
"P  c #9ED83E",
"I  c #89C64B",
"U  c #91CE41",
"Y  c #92CF43",
"T  c #93CF44",
"R  c #96D142",
"E  c #96D240",
"W  c #97D340",
"Q  c #96D242",
"!  c #94D044",
"~  c #97D14A",
"^  c #97D14B",
"/  c #99D440",
"(  c #A0D557",
")  c #A9DB55",
"_  c #BEE575",
"`  c #B8E17E",
"'  c #80B8D5",
"]  c #A3D297",
"[  c #BAE180",
"{  c #BCE382",
"}  c #B6D4E4",
"|  c #B8D6E5",
" . c #B9D6E7",
".. c #BBD7E5",
"X. c #BDD8E5",
"o. c #BED9E6",
"O. c #BED9E7",
"+. c #BFDAE6",
"@. c #BCD8E9",
"#. c #C1E48D",
"$. c #C4E78C",
"%. c #C4E791",
"&. c #C8E898",
"*. c #DAF0B8",
"=. c #C2DDD7",
"-. c #E5F5CC",
";. c gray100",
":. c None",
/* pixels */
":.:.:.Y ~ ` &.%.:.:.:.:.:.:.:.:.",
":.:.Y Y ( *.-.{ :.:.:.:.:.:.:.:.",
":.:.Y Y ~ ` #.) :.:.:.:.:.:.:.:.",
":.:.R R R R P j w F :.:.:.:.:.:.",
":.:.:.I K R g 9 a H } X.:.:.:.:.",
":.:.:.X o s < 5 y Z J ' A b :.:.",
":.:.$ $ $ % = 3 q c n n v i :.:.",
":.:.> > > > > :.:.:.i l :.:.:.:.",
":.:.> > > > :.:.:.:.:.:.:.:.:.:.",
":.:.> > > :.:.:.:.:.:.:.> > ; :.",
":.:.> > > :.:.:.:.:.:.> > > > :.",
":.:.:.> > > :.:.:.:.:.> > > > :.",
":.:.:.> > > > :.:.:.> > > = + :.",
":.:.:.> > > > > > > > > $   :.:.",
":.:.:.> > > > > > > = = X g :.:.",
":.:.:.:.> > > > > > :.:.:.:.:.:."
};
