/* XPM */
static char *wine_xpm[] = {
/* columns rows colors chars-per-pixel */
"48 48 125 2",
"   c #3C7F7F",
".  c #094D9F",
"X  c #145A9A",
"o  c #0046A9",
"O  c #044BA5",
"+  c #024BA9",
"@  c #084EA0",
"#  c #0A51A1",
"$  c #0D5BA5",
"%  c #0C5AA8",
"&  c #1D6294",
"*  c #0E60A8",
"=  c #0A66B7",
"-  c #0E69B5",
";  c #1164AA",
":  c #146CAE",
">  c #146EB1",
",  c #1B78AF",
"<  c #1673B2",
"1  c #1579BA",
"2  c #1876B3",
"3  c #1A7CB6",
"4  c #1B7EB8",
"5  c #2B6F8B",
"6  c #267AA1",
"7  c #4B8D74",
"8  c #5F9F67",
"9  c #5D9D68",
"0  c #509272",
"q  c #58A276",
"w  c #6FAE5C",
"e  c #75B458",
"r  c #78B756",
"t  c #7ABB57",
"y  c #64A463",
"u  c #68AE67",
"i  c #1C82B9",
"p  c #388891",
"a  c #2181AF",
"s  c #2087BC",
"d  c #2389BD",
"f  c #298CBE",
"g  c #3090AB",
"h  c #1781C1",
"j  c #2D8DC5",
"k  c #3291C1",
"l  c #3C95C2",
"z  c #59A99E",
"x  c #459AC5",
"c  c #4A9DC6",
"v  c #4B9CCB",
"b  c #509FC8",
"n  c #55A2C4",
"m  c #51A0C9",
"M  c #5AA4CB",
"N  c #62A8CD",
"B  c #6AADCF",
"V  c #6DADD1",
"C  c #70AFD1",
"Z  c #73B1D1",
"A  c #7AB4D4",
"S  c #80BE51",
"D  c #9BD53D",
"F  c #9DD83C",
"G  c #86C34C",
"H  c #8AC64A",
"J  c #82C050",
"K  c #92CE43",
"L  c #96D142",
"P  c #97D14A",
"I  c #99D440",
"U  c #98D14D",
"Y  c #9DD453",
"T  c #82C260",
"R  c #A0D645",
"E  c #A0D655",
"W  c #A2D65A",
"Q  c #A5D953",
"!  c #A5D85F",
"~  c #ACDB65",
"^  c #ABDB69",
"/  c #A0D471",
"(  c #B2DE73",
")  c #B5DF79",
"_  c #B5E07A",
"`  c #BAE276",
"'  c #BFE57D",
"]  c #84BEB7",
"[  c #84BAD6",
"{  c #8CBED9",
"}  c #A8D783",
"|  c #A3CEBD",
" . c #B7E086",
".. c #BBE282",
"X. c #90C1D4",
"o. c #9CC6DC",
"O. c #A0C8DD",
"+. c #B0D2D7",
"@. c #ABCDE1",
"#. c #B6D4E4",
"$. c #C4E787",
"%. c #C1E58B",
"&. c #C4E691",
"*. c #C7E897",
"=. c #C8E897",
"-. c #CAE99B",
";. c #CFEBA5",
":. c #D0ECA5",
">. c #D6EEB2",
",. c #D9EFB7",
"<. c #DCF0BB",
"1. c #C0D9E6",
"2. c #C4DCE8",
"3. c #C9DFEB",
"4. c #DEF2C1",
"5. c #CBE0EA",
"6. c #DAE9EE",
"7. c #E1F3C5",
"8. c #E4F4CA",
"9. c #ECF7DB",
"0. c #EDF8DD",
"q. c #F3FAE7",
"w. c #F5FBEA",
"e. c gray100",
"r. c None",
/* pixels */
"r.r.r.r.r.r.r.r.r.r.r.r.r.r.r.r.r.r.r.r.r.r.r.r.r.r.r.r.r.r.r.r.r.r.r.r.r.r.r.r.r.r.r.r.r.r.r.r.",
"r.r.r.r.r.r.r.r.r.r.r.K K K P ~ ^ ) ..%.r.r.r.r.r.r.r.r.r.r.r.r.r.r.r.r.r.r.r.r.r.r.r.r.r.r.r.r.",
"r.r.r.r.r.r.r.r.r.r.K K K K ! ) %.-.;.*.&.r.r.r.r.r.r.r.r.r.r.r.r.r.r.r.r.r.r.r.r.r.r.r.r.r.r.r.",
"r.r.r.r.r.r.r.r.r.K K K K U ^ $.:.<.7.>.-.%.r.r.r.r.r.r.r.r.r.r.r.r.r.r.r.r.r.r.r.r.r.r.r.r.r.r.",
"r.r.r.r.r.r.r.r.r.K K K K Y ( &.<.0.w.8.;...r.r.r.r.r.r.r.r.r.r.r.r.r.r.r.r.r.r.r.r.r.r.r.r.r.r.",
"r.r.r.r.r.r.r.r.K K K K K Y ( *.,.0.q.7.:...) r.r.r.r.r.r.r.r.r.r.r.r.r.r.r.r.r.r.r.r.r.r.r.r.r.",
"r.r.r.r.r.r.r.r.K K K K K U ^ $.;.<.4.>.-.) ^ r.r.r.r.r.r.r.r.r.r.r.r.r.r.r.r.r.r.r.r.r.r.r.r.r.",
"r.r.r.r.r.r.r.r.K K K K K K W ( $.*.-.*...^ Y r.r.r.r.r.r.r.r.r.r.r.r.r.r.r.r.r.r.r.r.r.r.r.r.r.",
"r.r.r.r.r.r.r.r.K K K K K K U ! ^ ( ) ( ~ Y U r.r.r.r.r.r.r.r.r.r.r.r.r.r.r.r.r.r.r.r.r.r.r.r.r.",
"r.r.r.r.r.r.r.r.K K K K K K L K Y W ! Y U K F r.r.r.r.r.r.r.r.r.r.r.r.r.r.r.r.r.r.r.r.r.r.r.r.r.",
"r.r.r.r.r.r.r.r.r.K K K K K K K K K K K K L r.r.r.r.r.r.r.r.r.r.r.r.r.r.r.r.r.r.r.r.r.r.r.r.r.r.",
"r.r.r.r.r.r.r.r.r.K K K K K K K K K K K D u = < 3 i k b C r.r.r.r.r.r.r.r.r.r.r.r.r.r.r.r.r.r.r.",
"r.r.r.r.r.r.r.r.r.r.K K K K K K K K K K F r.- 2 4 s f m C { @.5.r.r.r.r.r.r.r.r.r.r.r.r.r.r.r.r.",
"r.r.r.r.r.r.r.r.r.r.r.D D F L K K K L F r.r.> 2 3 d l M C { @.5.6.3.r.r.r.r.r.r.r.r.r.r.r.r.r.r.",
"r.r.r.r.r.r.r.r.r.r.r.r.r.7 J I F F r.r.r.r.: < 3 i f m B [ O.#.#.#.o.r.r.r.r.r.r.r.r.r.r.r.r.r.",
"r.r.r.r.r.r.r.r.r.r.r.r.# o & r.r.r.r.+ $ ; : , 3 i f x M A { O.O.o.{ A m r.r.r.r.r.r.r.r.r.r.r.",
"r.r.r.r.r.r.r.r.r.r.r.# # # @ r.r.O O # $ $ : : 2 i i l c N Z A [ A Z N c k r.r.r.r.r.r.r.r.r.r.",
"r.r.r.r.r.r.r.r.r.r.# # @ # @ # . . # # $ * ; : , 4 i d l c M N B N M x l d i r.r.r.r.r.r.r.r.r.",
"r.r.r.r.r.r.r.r.r.r.# # # # # # # # # # # $ * : : 2 4 i d k l x c x l k d i i r.r.r.r.r.r.r.r.r.",
"r.r.r.r.r.r.r.r.r.# # # # # # # # # # # # $ * ; : < 3 3 i i d f f f d i i i r.r.r.r.r.r.r.r.r.r.",
"r.r.r.r.r.r.r.r.# # # # # # # # # # # # # r.r.r.r.r.r.r.i i i i i i i i r.r.r.r.r.r.r.r.r.r.r.r.",
"r.r.r.r.r.r.r.r.# # # # # # @ # # # # r.r.r.r.r.r.r.r.r.r.r.i 2 i r.r.r.r.r.r.r.r.r.r.r.r.r.r.r.",
"r.r.r.r.r.r.r.# # # # # # # # # # # r.r.r.r.r.r.r.r.r.r.r.r.r.r.r.r.r.r.r.r.r.r.r.r.r.r.r.r.r.r.",
"r.r.r.r.r.r.r.# # # # # # # # # # r.r.r.r.r.r.r.r.r.r.r.r.r.r.r.r.r.r.r.r.r.r.r.r.r.r.r.r.r.r.r.",
"r.r.r.r.r.r.r.# # # # # # # # # r.r.r.r.r.r.r.r.r.r.r.r.r.r.r.r.r.r.r.r.r.r.r.r.r.r.r.r.r.r.r.r.",
"r.r.r.r.r.r.# # # # # # # # # # r.r.r.r.r.r.r.r.r.r.r.r.r.r.r.r.r.r.r.r.r.r.r.r.r.r.r.r.r.r.r.r.",
"r.r.r.r.r.r.# # # # # # # # # r.r.r.r.r.r.r.r.r.r.r.r.r.r.r.r.r.r.r.r.r.r.r.r.r.r.# # r.r.r.r.r.",
"r.r.r.r.r.r.# # # # # # # # # r.r.r.r.r.r.r.r.r.r.r.r.r.r.r.r.r.r.r.r.r.r.r.r.# # # # r.r.r.r.r.",
"r.r.r.r.r.r.# # # # # # # # # r.r.r.r.r.r.r.r.r.r.r.r.r.r.r.r.r.r.r.r.r.r.# # # # # # r.r.r.r.r.",
"r.r.r.r.r.r.# # # # # # # # # r.r.r.r.r.r.r.r.r.r.r.r.r.r.r.r.r.r.r.# # # # # # # # # r.r.r.r.r.",
"r.r.r.r.r.r.# # # # # # # # # r.r.r.r.r.r.r.r.r.r.r.r.r.r.r.r.r.r.r.# # # # # # # # # r.r.r.r.r.",
"r.r.r.r.r.r.# # # # # # # # # r.r.r.r.r.r.r.r.r.r.r.r.r.r.r.r.r.r.r.# # # # # @ # # # r.r.r.r.r.",
"r.r.r.r.r.r.r.r.r.r.# # # # # # r.r.r.r.r.r.r.r.r.r.r.r.r.r.r.r.r.r.# # # # # # # # # r.r.r.r.r.",
"r.r.r.r.r.r.r.r.r.r.# # # # # # r.r.r.r.r.r.r.r.r.r.r.r.r.r.r.r.r.# # # # # # # # # # r.r.r.r.r.",
"r.r.r.r.r.r.r.r.r.r.r.# @ # # # r.r.r.r.r.r.r.r.r.r.r.r.r.r.r.r.r.# # # # # # # # # r.r.r.r.r.r.",
"r.r.r.r.r.r.r.r.r.r.r.# # # # # # r.r.r.r.r.r.r.r.r.r.r.r.r.r.r.# # # # # # # # # # r.r.r.r.r.r.",
"r.r.r.r.r.r.r.r.r.r.r.r.# # # # # # r.r.r.r.r.r.r.r.r.r.r.r.r.# # # # . # # # # # # r.r.r.r.r.r.",
"r.r.r.r.r.r.r.r.r.r.r.r.# # # # # # # # r.r.r.r.r.r.r.r.r.r.# # # # # # # # # # # r.r.r.r.r.r.r.",
"r.r.r.r.r.r.r.r.r.r.r.r.# # # # . # # # # # r.r.r.r.r.# # # # # # # # # # # # # . r.r.r.r.r.r.r.",
"r.r.r.r.r.r.r.r.r.r.# # # # # # # # # # # # # # # # # # # # # # # # # # # # # # r.r.r.r.r.r.r.r.",
"r.r.r.r.r.r.r.r.r.r.# # # # # # # # # # # # # # # # # # # # # # # # # # # @ . r.r.r.r.r.r.r.r.r.",
"r.r.r.r.r.r.r.r.r.r.r.# # # # # # . # # # # # # # # # # # # # # # # # # # O r.r.r.r.r.r.r.r.r.r.",
"r.r.r.r.r.r.r.r.r.r.r.r.# # # # # # # # # # # # # # # # # # # r.r.r.# # # r.r.r.r.r.r.r.r.r.r.r.",
"r.r.r.r.r.r.r.r.r.r.r.r.r.# # # # # # # # # # # # # # # # r.r.r.r.r.r.O r.r.F r.r.r.r.r.r.r.r.r.",
"r.r.r.r.r.r.r.r.r.r.r.r.r.r.# # # # # # # # # # # # # r.r.r.r.r.r.r.r.r.r.r.D r.r.r.r.r.r.r.r.r.",
"r.r.r.r.r.r.r.r.r.r.r.r.r.r.r.r.# # # # # # # # # # # r.r.r.r.r.r.r.r.r.r.r.r.r.r.r.r.r.r.r.r.r.",
"r.r.r.r.r.r.r.r.r.r.r.r.r.r.r.r.r.r.# # # # # # # # # . r.r.r.r.r.r.r.r.r.r.r.r.r.r.r.r.r.r.r.r.",
"r.r.r.r.r.r.r.r.r.r.r.r.r.r.r.r.r.r.r.r.r.r.r.r.r.r.r.r.r.r.r.r.r.r.r.r.r.r.r.r.r.r.r.r.r.r.r.r."
};
